<mxfile host="app.diagrams.net" agent="Mozilla/5.0 (X11; Linux x86_64) AppleWebKit/537.36 (KHTML, like Gecko) Chrome/121.0.0.0 Safari/537.36" version="26.0.16">
  <diagram id="C5RBs43oDa-KdzZeNtuy" name="Page-1">
    <mxGraphModel dx="6054" dy="2415" grid="1" gridSize="10" guides="1" tooltips="1" connect="1" arrows="1" fold="1" page="1" pageScale="1" pageWidth="827" pageHeight="1169" math="0" shadow="0">
      <root>
        <mxCell id="WIyWlLk6GJQsqaUBKTNV-0" />
        <mxCell id="WIyWlLk6GJQsqaUBKTNV-1" parent="WIyWlLk6GJQsqaUBKTNV-0" />
        <mxCell id="J7MFYXNFgBxNtsF6KyEK-6" style="edgeStyle=orthogonalEdgeStyle;rounded=0;orthogonalLoop=1;jettySize=auto;html=1;exitX=0;exitY=1;exitDx=0;exitDy=0;entryX=0.5;entryY=0;entryDx=0;entryDy=0;" edge="1" parent="WIyWlLk6GJQsqaUBKTNV-1" source="J7MFYXNFgBxNtsF6KyEK-0" target="J7MFYXNFgBxNtsF6KyEK-10">
          <mxGeometry relative="1" as="geometry">
            <mxPoint x="-780" y="210" as="targetPoint" />
          </mxGeometry>
        </mxCell>
        <mxCell id="J7MFYXNFgBxNtsF6KyEK-7" style="edgeStyle=orthogonalEdgeStyle;rounded=0;orthogonalLoop=1;jettySize=auto;html=1;exitX=0.5;exitY=1;exitDx=0;exitDy=0;entryX=0.545;entryY=0.1;entryDx=0;entryDy=0;entryPerimeter=0;" edge="1" parent="WIyWlLk6GJQsqaUBKTNV-1" source="J7MFYXNFgBxNtsF6KyEK-0" target="J7MFYXNFgBxNtsF6KyEK-18">
          <mxGeometry relative="1" as="geometry">
            <mxPoint x="-490" y="220" as="targetPoint" />
          </mxGeometry>
        </mxCell>
        <mxCell id="J7MFYXNFgBxNtsF6KyEK-8" style="edgeStyle=orthogonalEdgeStyle;rounded=0;orthogonalLoop=1;jettySize=auto;html=1;exitX=1;exitY=1;exitDx=0;exitDy=0;entryX=0.545;entryY=0;entryDx=0;entryDy=0;entryPerimeter=0;" edge="1" parent="WIyWlLk6GJQsqaUBKTNV-1" source="J7MFYXNFgBxNtsF6KyEK-0" target="J7MFYXNFgBxNtsF6KyEK-21">
          <mxGeometry relative="1" as="geometry">
            <mxPoint x="-182" y="222" as="targetPoint" />
          </mxGeometry>
        </mxCell>
        <mxCell id="J7MFYXNFgBxNtsF6KyEK-0" value="&lt;&lt;interface&gt;&gt;&#xa;FormaDeAprendizaje&#xa;" style="swimlane;fontStyle=2;align=center;verticalAlign=top;childLayout=stackLayout;horizontal=1;startSize=40;horizontalStack=0;resizeParent=1;resizeLast=0;collapsible=1;marginBottom=0;rounded=0;shadow=0;strokeWidth=1;fillColor=#f8cecc;strokeColor=#b85450;" vertex="1" parent="WIyWlLk6GJQsqaUBKTNV-1">
          <mxGeometry x="-600" y="40" width="220" height="70" as="geometry">
            <mxRectangle x="230" y="140" width="160" height="26" as="alternateBounds" />
          </mxGeometry>
        </mxCell>
        <mxCell id="J7MFYXNFgBxNtsF6KyEK-1" value="+ dameFormaDeAprendizaje(): String" style="text;align=left;verticalAlign=top;spacingLeft=4;spacingRight=4;overflow=hidden;rotatable=0;points=[[0,0.5],[1,0.5]];portConstraint=eastwest;" vertex="1" parent="J7MFYXNFgBxNtsF6KyEK-0">
          <mxGeometry y="40" width="220" height="26" as="geometry" />
        </mxCell>
        <mxCell id="J7MFYXNFgBxNtsF6KyEK-10" value="AprendizajeTeorico " style="swimlane;fontStyle=2;align=center;verticalAlign=top;childLayout=stackLayout;horizontal=1;startSize=40;horizontalStack=0;resizeParent=1;resizeLast=0;collapsible=1;marginBottom=0;rounded=0;shadow=0;strokeWidth=1;fillColor=#dae8fc;strokeColor=#6c8ebf;" vertex="1" parent="WIyWlLk6GJQsqaUBKTNV-1">
          <mxGeometry x="-900" y="220" width="220" height="40" as="geometry">
            <mxRectangle x="230" y="140" width="160" height="26" as="alternateBounds" />
          </mxGeometry>
        </mxCell>
        <mxCell id="J7MFYXNFgBxNtsF6KyEK-18" value="AprendizajePractico " style="swimlane;fontStyle=2;align=center;verticalAlign=top;childLayout=stackLayout;horizontal=1;startSize=40;horizontalStack=0;resizeParent=1;resizeLast=0;collapsible=1;marginBottom=0;rounded=0;shadow=0;strokeWidth=1;fillColor=#e1d5e7;strokeColor=#9673a6;" vertex="1" parent="WIyWlLk6GJQsqaUBKTNV-1">
          <mxGeometry x="-610" y="220" width="220" height="40" as="geometry">
            <mxRectangle x="230" y="140" width="160" height="26" as="alternateBounds" />
          </mxGeometry>
        </mxCell>
        <mxCell id="J7MFYXNFgBxNtsF6KyEK-21" value="AprendizajeVisual" style="swimlane;fontStyle=2;align=center;verticalAlign=top;childLayout=stackLayout;horizontal=1;startSize=40;horizontalStack=0;resizeParent=1;resizeLast=0;collapsible=1;marginBottom=0;rounded=0;shadow=0;strokeWidth=1;fillColor=#ffe6cc;strokeColor=#d79b00;" vertex="1" parent="WIyWlLk6GJQsqaUBKTNV-1">
          <mxGeometry x="-300" y="218" width="230" height="40" as="geometry">
            <mxRectangle x="230" y="140" width="160" height="26" as="alternateBounds" />
          </mxGeometry>
        </mxCell>
        <mxCell id="J7MFYXNFgBxNtsF6KyEK-75" style="edgeStyle=orthogonalEdgeStyle;rounded=0;orthogonalLoop=1;jettySize=auto;html=1;exitX=0.5;exitY=1;exitDx=0;exitDy=0;" edge="1" parent="WIyWlLk6GJQsqaUBKTNV-1" source="J7MFYXNFgBxNtsF6KyEK-22" target="J7MFYXNFgBxNtsF6KyEK-160">
          <mxGeometry relative="1" as="geometry">
            <mxPoint x="930" y="370" as="targetPoint" />
          </mxGeometry>
        </mxCell>
        <mxCell id="J7MFYXNFgBxNtsF6KyEK-22" value="&lt;&lt;interface&gt;&gt;&#xa;Subject" style="swimlane;fontStyle=2;align=center;verticalAlign=top;childLayout=stackLayout;horizontal=1;startSize=40;horizontalStack=0;resizeParent=1;resizeLast=0;collapsible=1;marginBottom=0;rounded=0;shadow=0;strokeWidth=1;fillColor=#f8cecc;strokeColor=#b85450;gradientColor=#ea6b66;" vertex="1" parent="WIyWlLk6GJQsqaUBKTNV-1">
          <mxGeometry x="770" y="50" width="320" height="190" as="geometry">
            <mxRectangle x="230" y="140" width="160" height="26" as="alternateBounds" />
          </mxGeometry>
        </mxCell>
        <mxCell id="J7MFYXNFgBxNtsF6KyEK-23" value="+registerObserver(Observer, FormaDeAprendizaje): void" style="text;align=left;verticalAlign=top;spacingLeft=4;spacingRight=4;overflow=hidden;rotatable=0;points=[[0,0.5],[1,0.5]];portConstraint=eastwest;fontColor=#000000;" vertex="1" parent="J7MFYXNFgBxNtsF6KyEK-22">
          <mxGeometry y="40" width="320" height="26" as="geometry" />
        </mxCell>
        <mxCell id="J7MFYXNFgBxNtsF6KyEK-28" value="+removeObserver(Observer): void" style="text;align=left;verticalAlign=top;spacingLeft=4;spacingRight=4;overflow=hidden;rotatable=0;points=[[0,0.5],[1,0.5]];portConstraint=eastwest;" vertex="1" parent="J7MFYXNFgBxNtsF6KyEK-22">
          <mxGeometry y="66" width="320" height="26" as="geometry" />
        </mxCell>
        <mxCell id="J7MFYXNFgBxNtsF6KyEK-32" value="+notifyObserversGenerally(): void" style="text;align=left;verticalAlign=top;spacingLeft=4;spacingRight=4;overflow=hidden;rotatable=0;points=[[0,0.5],[1,0.5]];portConstraint=eastwest;" vertex="1" parent="J7MFYXNFgBxNtsF6KyEK-22">
          <mxGeometry y="92" width="320" height="26" as="geometry" />
        </mxCell>
        <mxCell id="J7MFYXNFgBxNtsF6KyEK-33" value="+notifyObserversAvance(): void" style="text;align=left;verticalAlign=top;spacingLeft=4;spacingRight=4;overflow=hidden;rotatable=0;points=[[0,0.5],[1,0.5]];portConstraint=eastwest;" vertex="1" parent="J7MFYXNFgBxNtsF6KyEK-22">
          <mxGeometry y="118" width="320" height="26" as="geometry" />
        </mxCell>
        <mxCell id="J7MFYXNFgBxNtsF6KyEK-101" style="edgeStyle=orthogonalEdgeStyle;rounded=0;orthogonalLoop=1;jettySize=auto;html=1;exitX=0.5;exitY=1;exitDx=0;exitDy=0;entryX=0.5;entryY=0;entryDx=0;entryDy=0;" edge="1" parent="WIyWlLk6GJQsqaUBKTNV-1" source="J7MFYXNFgBxNtsF6KyEK-76" target="J7MFYXNFgBxNtsF6KyEK-97">
          <mxGeometry relative="1" as="geometry" />
        </mxCell>
        <mxCell id="J7MFYXNFgBxNtsF6KyEK-76" value="&lt;&lt;interface&gt;&gt;&#xa;Notificacion&#xa;" style="swimlane;fontStyle=2;align=center;verticalAlign=top;childLayout=stackLayout;horizontal=1;startSize=40;horizontalStack=0;resizeParent=1;resizeLast=0;collapsible=1;marginBottom=0;rounded=0;shadow=0;strokeWidth=1;fillColor=#f8cecc;strokeColor=#b85450;" vertex="1" parent="WIyWlLk6GJQsqaUBKTNV-1">
          <mxGeometry x="1700" y="50" width="220" height="110" as="geometry">
            <mxRectangle x="230" y="140" width="160" height="26" as="alternateBounds" />
          </mxGeometry>
        </mxCell>
        <mxCell id="J7MFYXNFgBxNtsF6KyEK-77" value="# cursoOrigen: Curso" style="text;align=left;verticalAlign=top;spacingLeft=4;spacingRight=4;overflow=hidden;rotatable=0;points=[[0,0.5],[1,0.5]];portConstraint=eastwest;" vertex="1" parent="J7MFYXNFgBxNtsF6KyEK-76">
          <mxGeometry y="40" width="220" height="26" as="geometry" />
        </mxCell>
        <mxCell id="J7MFYXNFgBxNtsF6KyEK-96" value="" style="line;html=1;strokeWidth=1;align=left;verticalAlign=middle;spacingTop=-1;spacingLeft=3;spacingRight=3;rotatable=0;labelPosition=right;points=[];portConstraint=eastwest;" vertex="1" parent="J7MFYXNFgBxNtsF6KyEK-76">
          <mxGeometry y="66" width="220" height="8" as="geometry" />
        </mxCell>
        <mxCell id="J7MFYXNFgBxNtsF6KyEK-80" value="+ Notificacion(cursoOrigen)" style="text;align=left;verticalAlign=top;spacingLeft=4;spacingRight=4;overflow=hidden;rotatable=0;points=[[0,0.5],[1,0.5]];portConstraint=eastwest;" vertex="1" parent="J7MFYXNFgBxNtsF6KyEK-76">
          <mxGeometry y="74" width="220" height="26" as="geometry" />
        </mxCell>
        <mxCell id="J7MFYXNFgBxNtsF6KyEK-97" value="NotificacionPersonal" style="swimlane;fontStyle=2;align=center;verticalAlign=top;childLayout=stackLayout;horizontal=1;startSize=40;horizontalStack=0;resizeParent=1;resizeLast=0;collapsible=1;marginBottom=0;rounded=0;shadow=0;strokeWidth=1;fillColor=#eeeeee;strokeColor=#36393d;" vertex="1" parent="WIyWlLk6GJQsqaUBKTNV-1">
          <mxGeometry x="1610" y="310" width="400" height="110" as="geometry">
            <mxRectangle x="230" y="140" width="160" height="26" as="alternateBounds" />
          </mxGeometry>
        </mxCell>
        <mxCell id="J7MFYXNFgBxNtsF6KyEK-98" value="#datos: Inscripcion" style="text;align=left;verticalAlign=top;spacingLeft=4;spacingRight=4;overflow=hidden;rotatable=0;points=[[0,0.5],[1,0.5]];portConstraint=eastwest;" vertex="1" parent="J7MFYXNFgBxNtsF6KyEK-97">
          <mxGeometry y="40" width="400" height="26" as="geometry" />
        </mxCell>
        <mxCell id="J7MFYXNFgBxNtsF6KyEK-99" value="" style="line;html=1;strokeWidth=1;align=left;verticalAlign=middle;spacingTop=-1;spacingLeft=3;spacingRight=3;rotatable=0;labelPosition=right;points=[];portConstraint=eastwest;" vertex="1" parent="J7MFYXNFgBxNtsF6KyEK-97">
          <mxGeometry y="66" width="400" height="8" as="geometry" />
        </mxCell>
        <mxCell id="J7MFYXNFgBxNtsF6KyEK-100" value="+NotificacionPersonal(cursoOrigen: Curso, datos: Inscripcion)" style="text;align=left;verticalAlign=top;spacingLeft=4;spacingRight=4;overflow=hidden;rotatable=0;points=[[0,0.5],[1,0.5]];portConstraint=eastwest;" vertex="1" parent="J7MFYXNFgBxNtsF6KyEK-97">
          <mxGeometry y="74" width="400" height="26" as="geometry" />
        </mxCell>
        <mxCell id="J7MFYXNFgBxNtsF6KyEK-105" value="Profesor" style="swimlane;fontStyle=2;align=center;verticalAlign=top;childLayout=stackLayout;horizontal=1;startSize=30;horizontalStack=0;resizeParent=1;resizeLast=0;collapsible=1;marginBottom=0;rounded=0;shadow=0;strokeWidth=1;fillColor=#ffcc99;strokeColor=#36393d;" vertex="1" parent="WIyWlLk6GJQsqaUBKTNV-1">
          <mxGeometry x="645" y="840" width="570" height="174" as="geometry">
            <mxRectangle x="230" y="140" width="160" height="26" as="alternateBounds" />
          </mxGeometry>
        </mxCell>
        <mxCell id="J7MFYXNFgBxNtsF6KyEK-106" value="-nombre: String" style="text;align=left;verticalAlign=top;spacingLeft=4;spacingRight=4;overflow=hidden;rotatable=0;points=[[0,0.5],[1,0.5]];portConstraint=eastwest;fontColor=#000000;" vertex="1" parent="J7MFYXNFgBxNtsF6KyEK-105">
          <mxGeometry y="30" width="570" height="26" as="geometry" />
        </mxCell>
        <mxCell id="J7MFYXNFgBxNtsF6KyEK-107" value="-cursosAsignados: List&lt;Curso&gt;" style="text;align=left;verticalAlign=top;spacingLeft=4;spacingRight=4;overflow=hidden;rotatable=0;points=[[0,0.5],[1,0.5]];portConstraint=eastwest;" vertex="1" parent="J7MFYXNFgBxNtsF6KyEK-105">
          <mxGeometry y="56" width="570" height="26" as="geometry" />
        </mxCell>
        <mxCell id="J7MFYXNFgBxNtsF6KyEK-112" value="" style="line;html=1;strokeWidth=1;align=left;verticalAlign=middle;spacingTop=-1;spacingLeft=3;spacingRight=3;rotatable=0;labelPosition=right;points=[];portConstraint=eastwest;" vertex="1" parent="J7MFYXNFgBxNtsF6KyEK-105">
          <mxGeometry y="82" width="570" height="8" as="geometry" />
        </mxCell>
        <mxCell id="J7MFYXNFgBxNtsF6KyEK-116" value="+cancelarClase(curso: Curso): void" style="text;align=left;verticalAlign=top;spacingLeft=4;spacingRight=4;overflow=hidden;rotatable=0;points=[[0,0.5],[1,0.5]];portConstraint=eastwest;" vertex="1" parent="J7MFYXNFgBxNtsF6KyEK-105">
          <mxGeometry y="90" width="570" height="28" as="geometry" />
        </mxCell>
        <mxCell id="J7MFYXNFgBxNtsF6KyEK-117" value="+cambiarHorario(curso: Curso): void" style="text;align=left;verticalAlign=top;spacingLeft=4;spacingRight=4;overflow=hidden;rotatable=0;points=[[0,0.5],[1,0.5]];portConstraint=eastwest;" vertex="1" parent="J7MFYXNFgBxNtsF6KyEK-105">
          <mxGeometry y="118" width="570" height="28" as="geometry" />
        </mxCell>
        <mxCell id="J7MFYXNFgBxNtsF6KyEK-118" value="+informarDeMaterialComplementario(curso: Curso): void" style="text;align=left;verticalAlign=top;spacingLeft=4;spacingRight=4;overflow=hidden;rotatable=0;points=[[0,0.5],[1,0.5]];portConstraint=eastwest;" vertex="1" parent="J7MFYXNFgBxNtsF6KyEK-105">
          <mxGeometry y="146" width="570" height="28" as="geometry" />
        </mxCell>
        <mxCell id="J7MFYXNFgBxNtsF6KyEK-171" style="edgeStyle=orthogonalEdgeStyle;rounded=0;orthogonalLoop=1;jettySize=auto;html=1;exitX=0.5;exitY=1;exitDx=0;exitDy=0;entryX=0.5;entryY=0;entryDx=0;entryDy=0;" edge="1" parent="WIyWlLk6GJQsqaUBKTNV-1" source="J7MFYXNFgBxNtsF6KyEK-160" target="J7MFYXNFgBxNtsF6KyEK-105">
          <mxGeometry relative="1" as="geometry">
            <mxPoint x="1402" y="810" as="targetPoint" />
            <Array as="points" />
          </mxGeometry>
        </mxCell>
        <mxCell id="J7MFYXNFgBxNtsF6KyEK-160" value="&lt;&lt;interface&gt;&gt;&#xa;Subject" style="swimlane;fontStyle=2;align=center;verticalAlign=top;childLayout=stackLayout;horizontal=1;startSize=40;horizontalStack=0;resizeParent=1;resizeLast=0;collapsible=1;marginBottom=0;rounded=0;shadow=0;strokeWidth=1;fillColor=#cce5ff;strokeColor=#36393d;" vertex="1" parent="WIyWlLk6GJQsqaUBKTNV-1">
          <mxGeometry x="675" y="360" width="510" height="400" as="geometry">
            <mxRectangle x="230" y="140" width="160" height="26" as="alternateBounds" />
          </mxGeometry>
        </mxCell>
        <mxCell id="J7MFYXNFgBxNtsF6KyEK-44" value="- nombreCurso: String" style="text;align=left;verticalAlign=top;spacingLeft=4;spacingRight=4;overflow=hidden;rotatable=0;points=[[0,0.5],[1,0.5]];portConstraint=eastwest;fontColor=#000000;" vertex="1" parent="J7MFYXNFgBxNtsF6KyEK-160">
          <mxGeometry y="40" width="510" height="26" as="geometry" />
        </mxCell>
        <mxCell id="J7MFYXNFgBxNtsF6KyEK-45" value="- nivelCurso: String" style="text;align=left;verticalAlign=top;spacingLeft=4;spacingRight=4;overflow=hidden;rotatable=0;points=[[0,0.5],[1,0.5]];portConstraint=eastwest;" vertex="1" parent="J7MFYXNFgBxNtsF6KyEK-160">
          <mxGeometry y="66" width="510" height="26" as="geometry" />
        </mxCell>
        <mxCell id="J7MFYXNFgBxNtsF6KyEK-46" value="- mensualidad: double" style="text;align=left;verticalAlign=top;spacingLeft=4;spacingRight=4;overflow=hidden;rotatable=0;points=[[0,0.5],[1,0.5]];portConstraint=eastwest;" vertex="1" parent="J7MFYXNFgBxNtsF6KyEK-160">
          <mxGeometry y="92" width="510" height="26" as="geometry" />
        </mxCell>
        <mxCell id="J7MFYXNFgBxNtsF6KyEK-47" value="- profesor: Profesor" style="text;align=left;verticalAlign=top;spacingLeft=4;spacingRight=4;overflow=hidden;rotatable=0;points=[[0,0.5],[1,0.5]];portConstraint=eastwest;" vertex="1" parent="J7MFYXNFgBxNtsF6KyEK-160">
          <mxGeometry y="118" width="510" height="26" as="geometry" />
        </mxCell>
        <mxCell id="J7MFYXNFgBxNtsF6KyEK-59" value="- mesDelCurso: int" style="text;align=left;verticalAlign=top;spacingLeft=4;spacingRight=4;overflow=hidden;rotatable=0;points=[[0,0.5],[1,0.5]];portConstraint=eastwest;" vertex="1" parent="J7MFYXNFgBxNtsF6KyEK-160">
          <mxGeometry y="144" width="510" height="26" as="geometry" />
        </mxCell>
        <mxCell id="J7MFYXNFgBxNtsF6KyEK-58" value="- inscripciones: List" style="text;align=left;verticalAlign=top;spacingLeft=4;spacingRight=4;overflow=hidden;rotatable=0;points=[[0,0.5],[1,0.5]];portConstraint=eastwest;" vertex="1" parent="J7MFYXNFgBxNtsF6KyEK-160">
          <mxGeometry y="170" width="510" height="26" as="geometry" />
        </mxCell>
        <mxCell id="J7MFYXNFgBxNtsF6KyEK-71" value="" style="line;html=1;strokeWidth=1;align=left;verticalAlign=middle;spacingTop=-1;spacingLeft=3;spacingRight=3;rotatable=0;labelPosition=right;points=[];portConstraint=eastwest;" vertex="1" parent="J7MFYXNFgBxNtsF6KyEK-160">
          <mxGeometry y="196" width="510" height="8" as="geometry" />
        </mxCell>
        <mxCell id="J7MFYXNFgBxNtsF6KyEK-60" value="+registrarEstudiante(estudiante: Estudiante, aprendizaje: FormaDeAprendizaje): void" style="text;align=left;verticalAlign=top;spacingLeft=4;spacingRight=4;overflow=hidden;rotatable=0;points=[[0,0.5],[1,0.5]];portConstraint=eastwest;" vertex="1" parent="J7MFYXNFgBxNtsF6KyEK-160">
          <mxGeometry y="204" width="510" height="26" as="geometry" />
        </mxCell>
        <mxCell id="J7MFYXNFgBxNtsF6KyEK-69" value="+removerEstudiante(estudiante: Estudiante): void" style="text;align=left;verticalAlign=top;spacingLeft=4;spacingRight=4;overflow=hidden;rotatable=0;points=[[0,0.5],[1,0.5]];portConstraint=eastwest;" vertex="1" parent="J7MFYXNFgBxNtsF6KyEK-160">
          <mxGeometry y="230" width="510" height="26" as="geometry" />
        </mxCell>
        <mxCell id="J7MFYXNFgBxNtsF6KyEK-70" value="+avanzarMes(): void" style="text;align=left;verticalAlign=top;spacingLeft=4;spacingRight=4;overflow=hidden;rotatable=0;points=[[0,0.5],[1,0.5]];portConstraint=eastwest;" vertex="1" parent="J7MFYXNFgBxNtsF6KyEK-160">
          <mxGeometry y="256" width="510" height="26" as="geometry" />
        </mxCell>
        <mxCell id="J7MFYXNFgBxNtsF6KyEK-74" value="+notifyObserversAvance(): void" style="text;align=left;verticalAlign=top;spacingLeft=4;spacingRight=4;overflow=hidden;rotatable=0;points=[[0,0.5],[1,0.5]];portConstraint=eastwest;" vertex="1" parent="J7MFYXNFgBxNtsF6KyEK-160">
          <mxGeometry y="282" width="510" height="28" as="geometry" />
        </mxCell>
        <mxCell id="J7MFYXNFgBxNtsF6KyEK-78" value="+notifyObserversGenerally(): void" style="text;align=left;verticalAlign=top;spacingLeft=4;spacingRight=4;overflow=hidden;rotatable=0;points=[[0,0.5],[1,0.5]];portConstraint=eastwest;" vertex="1" parent="J7MFYXNFgBxNtsF6KyEK-160">
          <mxGeometry y="310" width="510" height="28" as="geometry" />
        </mxCell>
        <mxCell id="J7MFYXNFgBxNtsF6KyEK-72" value="+dameInscripcion(estudiante: Estudiante): Inscripcion" style="text;align=left;verticalAlign=top;spacingLeft=4;spacingRight=4;overflow=hidden;rotatable=0;points=[[0,0.5],[1,0.5]];portConstraint=eastwest;" vertex="1" parent="J7MFYXNFgBxNtsF6KyEK-160">
          <mxGeometry y="338" width="510" height="28" as="geometry" />
        </mxCell>
        <mxCell id="J7MFYXNFgBxNtsF6KyEK-79" value="+registrarAvisoGeneral(aviso: Notificable): void&#xa;" style="text;align=left;verticalAlign=top;spacingLeft=4;spacingRight=4;overflow=hidden;rotatable=0;points=[[0,0.5],[1,0.5]];portConstraint=eastwest;" vertex="1" parent="J7MFYXNFgBxNtsF6KyEK-160">
          <mxGeometry y="366" width="510" height="28" as="geometry" />
        </mxCell>
        <mxCell id="J7MFYXNFgBxNtsF6KyEK-176" value="Profesor" style="swimlane;fontStyle=2;align=center;verticalAlign=top;childLayout=stackLayout;horizontal=1;startSize=30;horizontalStack=0;resizeParent=1;resizeLast=0;collapsible=1;marginBottom=0;rounded=0;shadow=0;strokeWidth=1;fillColor=#ffcc99;strokeColor=#36393d;" vertex="1" parent="WIyWlLk6GJQsqaUBKTNV-1">
          <mxGeometry x="-1120" y="830" width="570" height="174" as="geometry">
            <mxRectangle x="230" y="140" width="160" height="26" as="alternateBounds" />
          </mxGeometry>
        </mxCell>
        <mxCell id="J7MFYXNFgBxNtsF6KyEK-177" value="-estudiante: Observer" style="text;align=left;verticalAlign=top;spacingLeft=4;spacingRight=4;overflow=hidden;rotatable=0;points=[[0,0.5],[1,0.5]];portConstraint=eastwest;fillColor=none;" vertex="1" parent="J7MFYXNFgBxNtsF6KyEK-176">
          <mxGeometry y="30" width="570" height="26" as="geometry" />
        </mxCell>
        <mxCell id="J7MFYXNFgBxNtsF6KyEK-178" value="-aprendizaje: FormaDeAprendizaje" style="text;align=left;verticalAlign=top;spacingLeft=4;spacingRight=4;overflow=hidden;rotatable=0;points=[[0,0.5],[1,0.5]];portConstraint=eastwest;" vertex="1" parent="J7MFYXNFgBxNtsF6KyEK-176">
          <mxGeometry y="56" width="570" height="26" as="geometry" />
        </mxCell>
        <mxCell id="J7MFYXNFgBxNtsF6KyEK-180" value="-mesAvance: int" style="text;align=left;verticalAlign=top;spacingLeft=4;spacingRight=4;overflow=hidden;rotatable=0;points=[[0,0.5],[1,0.5]];portConstraint=eastwest;" vertex="1" parent="J7MFYXNFgBxNtsF6KyEK-176">
          <mxGeometry y="82" width="570" height="28" as="geometry" />
        </mxCell>
        <mxCell id="J7MFYXNFgBxNtsF6KyEK-179" value="" style="line;html=1;strokeWidth=1;align=left;verticalAlign=middle;spacingTop=-1;spacingLeft=3;spacingRight=3;rotatable=0;labelPosition=right;points=[];portConstraint=eastwest;" vertex="1" parent="J7MFYXNFgBxNtsF6KyEK-176">
          <mxGeometry y="110" width="570" height="8" as="geometry" />
        </mxCell>
        <mxCell id="J7MFYXNFgBxNtsF6KyEK-181" value="+registrarAvance(): void" style="text;align=left;verticalAlign=top;spacingLeft=4;spacingRight=4;overflow=hidden;rotatable=0;points=[[0,0.5],[1,0.5]];portConstraint=eastwest;" vertex="1" parent="J7MFYXNFgBxNtsF6KyEK-176">
          <mxGeometry y="118" width="570" height="28" as="geometry" />
        </mxCell>
        <mxCell id="J7MFYXNFgBxNtsF6KyEK-182" value="+setAprendizaje(aprendizaje: FormaDeAprendizaje): void" style="text;align=left;verticalAlign=top;spacingLeft=4;spacingRight=4;overflow=hidden;rotatable=0;points=[[0,0.5],[1,0.5]];portConstraint=eastwest;" vertex="1" parent="J7MFYXNFgBxNtsF6KyEK-176">
          <mxGeometry y="146" width="570" height="28" as="geometry" />
        </mxCell>
        <mxCell id="J7MFYXNFgBxNtsF6KyEK-174" style="edgeStyle=orthogonalEdgeStyle;rounded=0;orthogonalLoop=1;jettySize=auto;html=1;exitX=0;exitY=0.5;exitDx=0;exitDy=0;entryX=0.5;entryY=0;entryDx=0;entryDy=0;" edge="1" parent="WIyWlLk6GJQsqaUBKTNV-1" source="J7MFYXNFgBxNtsF6KyEK-79" target="J7MFYXNFgBxNtsF6KyEK-176">
          <mxGeometry relative="1" as="geometry">
            <mxPoint x="-580" y="780" as="targetPoint" />
          </mxGeometry>
        </mxCell>
        <mxCell id="J7MFYXNFgBxNtsF6KyEK-191" style="edgeStyle=orthogonalEdgeStyle;rounded=0;orthogonalLoop=1;jettySize=auto;html=1;exitX=0.5;exitY=1;exitDx=0;exitDy=0;entryX=0.5;entryY=0;entryDx=0;entryDy=0;" edge="1" parent="WIyWlLk6GJQsqaUBKTNV-1" source="J7MFYXNFgBxNtsF6KyEK-184" target="J7MFYXNFgBxNtsF6KyEK-193">
          <mxGeometry relative="1" as="geometry">
            <mxPoint x="-410" y="1390" as="targetPoint" />
          </mxGeometry>
        </mxCell>
        <mxCell id="J7MFYXNFgBxNtsF6KyEK-184" value="&lt;&lt;interface&gt;&gt;&#xa;FormaDeAprendizaje&#xa;" style="swimlane;fontStyle=2;align=center;verticalAlign=top;childLayout=stackLayout;horizontal=1;startSize=40;horizontalStack=0;resizeParent=1;resizeLast=0;collapsible=1;marginBottom=0;rounded=0;shadow=0;strokeWidth=1;fillColor=#ffff88;strokeColor=#36393d;" vertex="1" parent="WIyWlLk6GJQsqaUBKTNV-1">
          <mxGeometry x="-156" y="840" width="570" height="70" as="geometry">
            <mxRectangle x="230" y="140" width="160" height="26" as="alternateBounds" />
          </mxGeometry>
        </mxCell>
        <mxCell id="J7MFYXNFgBxNtsF6KyEK-185" value="+dameFormaDeAprendizaje(): String&#xa;" style="text;align=left;verticalAlign=top;spacingLeft=4;spacingRight=4;overflow=hidden;rotatable=0;points=[[0,0.5],[1,0.5]];portConstraint=eastwest;fillColor=none;" vertex="1" parent="J7MFYXNFgBxNtsF6KyEK-184">
          <mxGeometry y="40" width="570" height="26" as="geometry" />
        </mxCell>
        <mxCell id="J7MFYXNFgBxNtsF6KyEK-193" value="Estudiante" style="swimlane;fontStyle=2;align=center;verticalAlign=top;childLayout=stackLayout;horizontal=1;startSize=30;horizontalStack=0;resizeParent=1;resizeLast=0;collapsible=1;marginBottom=0;rounded=0;shadow=0;strokeWidth=1;fillColor=#cdeb8b;strokeColor=#36393d;" vertex="1" parent="WIyWlLk6GJQsqaUBKTNV-1">
          <mxGeometry x="-690" y="1390" width="570" height="314" as="geometry">
            <mxRectangle x="230" y="140" width="160" height="26" as="alternateBounds" />
          </mxGeometry>
        </mxCell>
        <mxCell id="J7MFYXNFgBxNtsF6KyEK-194" value="-nombre: String" style="text;align=left;verticalAlign=top;spacingLeft=4;spacingRight=4;overflow=hidden;rotatable=0;points=[[0,0.5],[1,0.5]];portConstraint=eastwest;fillColor=none;" vertex="1" parent="J7MFYXNFgBxNtsF6KyEK-193">
          <mxGeometry y="30" width="570" height="26" as="geometry" />
        </mxCell>
        <mxCell id="J7MFYXNFgBxNtsF6KyEK-195" value="-saldo: double" style="text;align=left;verticalAlign=top;spacingLeft=4;spacingRight=4;overflow=hidden;rotatable=0;points=[[0,0.5],[1,0.5]];portConstraint=eastwest;" vertex="1" parent="J7MFYXNFgBxNtsF6KyEK-193">
          <mxGeometry y="56" width="570" height="26" as="geometry" />
        </mxCell>
        <mxCell id="J7MFYXNFgBxNtsF6KyEK-196" value="-cursos: List&lt;Curso&gt;" style="text;align=left;verticalAlign=top;spacingLeft=4;spacingRight=4;overflow=hidden;rotatable=0;points=[[0,0.5],[1,0.5]];portConstraint=eastwest;" vertex="1" parent="J7MFYXNFgBxNtsF6KyEK-193">
          <mxGeometry y="82" width="570" height="28" as="geometry" />
        </mxCell>
        <mxCell id="J7MFYXNFgBxNtsF6KyEK-198" value="-notificaciones: List&lt;Notificable&gt;" style="text;align=left;verticalAlign=top;spacingLeft=4;spacingRight=4;overflow=hidden;rotatable=0;points=[[0,0.5],[1,0.5]];portConstraint=eastwest;" vertex="1" parent="J7MFYXNFgBxNtsF6KyEK-193">
          <mxGeometry y="110" width="570" height="28" as="geometry" />
        </mxCell>
        <mxCell id="J7MFYXNFgBxNtsF6KyEK-197" value="" style="line;html=1;strokeWidth=1;align=left;verticalAlign=middle;spacingTop=-1;spacingLeft=3;spacingRight=3;rotatable=0;labelPosition=right;points=[];portConstraint=eastwest;" vertex="1" parent="J7MFYXNFgBxNtsF6KyEK-193">
          <mxGeometry y="138" width="570" height="8" as="geometry" />
        </mxCell>
        <mxCell id="J7MFYXNFgBxNtsF6KyEK-199" value="+inscribir(curso: Curso, aprendizaje: FormaDeAprendizaje): void" style="text;align=left;verticalAlign=top;spacingLeft=4;spacingRight=4;overflow=hidden;rotatable=0;points=[[0,0.5],[1,0.5]];portConstraint=eastwest;" vertex="1" parent="J7MFYXNFgBxNtsF6KyEK-193">
          <mxGeometry y="146" width="570" height="28" as="geometry" />
        </mxCell>
        <mxCell id="J7MFYXNFgBxNtsF6KyEK-209" value="+cancelar(curso: Curso): void" style="text;align=left;verticalAlign=top;spacingLeft=4;spacingRight=4;overflow=hidden;rotatable=0;points=[[0,0.5],[1,0.5]];portConstraint=eastwest;" vertex="1" parent="J7MFYXNFgBxNtsF6KyEK-193">
          <mxGeometry y="174" width="570" height="28" as="geometry" />
        </mxCell>
        <mxCell id="J7MFYXNFgBxNtsF6KyEK-210" value="+pagarMensualidad(curso: Curso): void" style="text;align=left;verticalAlign=top;spacingLeft=4;spacingRight=4;overflow=hidden;rotatable=0;points=[[0,0.5],[1,0.5]];portConstraint=eastwest;" vertex="1" parent="J7MFYXNFgBxNtsF6KyEK-193">
          <mxGeometry y="202" width="570" height="28" as="geometry" />
        </mxCell>
        <mxCell id="J7MFYXNFgBxNtsF6KyEK-211" value="+cambiarAprendizaje(curso: Curso, nuevaForma: FormaDeAprendizaje): void" style="text;align=left;verticalAlign=top;spacingLeft=4;spacingRight=4;overflow=hidden;rotatable=0;points=[[0,0.5],[1,0.5]];portConstraint=eastwest;" vertex="1" parent="J7MFYXNFgBxNtsF6KyEK-193">
          <mxGeometry y="230" width="570" height="28" as="geometry" />
        </mxCell>
        <mxCell id="J7MFYXNFgBxNtsF6KyEK-212" value="+update(notificaciones: List&lt;Notificable&gt;): void" style="text;align=left;verticalAlign=top;spacingLeft=4;spacingRight=4;overflow=hidden;rotatable=0;points=[[0,0.5],[1,0.5]];portConstraint=eastwest;" vertex="1" parent="J7MFYXNFgBxNtsF6KyEK-193">
          <mxGeometry y="258" width="570" height="28" as="geometry" />
        </mxCell>
        <mxCell id="J7MFYXNFgBxNtsF6KyEK-213" value="+mostrarNotificaciones(curso: Curso): String&#xa;" style="text;align=left;verticalAlign=top;spacingLeft=4;spacingRight=4;overflow=hidden;rotatable=0;points=[[0,0.5],[1,0.5]];portConstraint=eastwest;" vertex="1" parent="J7MFYXNFgBxNtsF6KyEK-193">
          <mxGeometry y="286" width="570" height="28" as="geometry" />
        </mxCell>
        <mxCell id="J7MFYXNFgBxNtsF6KyEK-201" style="edgeStyle=orthogonalEdgeStyle;rounded=0;orthogonalLoop=1;jettySize=auto;html=1;exitX=1;exitY=0.5;exitDx=0;exitDy=0;entryX=-0.007;entryY=-0.11;entryDx=0;entryDy=0;entryPerimeter=0;" edge="1" parent="WIyWlLk6GJQsqaUBKTNV-1" source="J7MFYXNFgBxNtsF6KyEK-182" target="J7MFYXNFgBxNtsF6KyEK-194">
          <mxGeometry relative="1" as="geometry" />
        </mxCell>
        <mxCell id="J7MFYXNFgBxNtsF6KyEK-221" style="edgeStyle=orthogonalEdgeStyle;rounded=0;orthogonalLoop=1;jettySize=auto;html=1;exitX=0.5;exitY=1;exitDx=0;exitDy=0;entryX=0.451;entryY=0.02;entryDx=0;entryDy=0;entryPerimeter=0;" edge="1" parent="WIyWlLk6GJQsqaUBKTNV-1" source="J7MFYXNFgBxNtsF6KyEK-214" target="J7MFYXNFgBxNtsF6KyEK-245">
          <mxGeometry relative="1" as="geometry">
            <mxPoint x="1888" y="1107" as="targetPoint" />
          </mxGeometry>
        </mxCell>
        <mxCell id="J7MFYXNFgBxNtsF6KyEK-224" style="edgeStyle=orthogonalEdgeStyle;rounded=0;orthogonalLoop=1;jettySize=auto;html=1;exitX=0;exitY=0.75;exitDx=0;exitDy=0;entryX=0.439;entryY=0;entryDx=0;entryDy=0;entryPerimeter=0;" edge="1" parent="WIyWlLk6GJQsqaUBKTNV-1" source="J7MFYXNFgBxNtsF6KyEK-214" target="J7MFYXNFgBxNtsF6KyEK-236">
          <mxGeometry relative="1" as="geometry">
            <mxPoint x="1440" y="1040" as="targetPoint" />
          </mxGeometry>
        </mxCell>
        <mxCell id="J7MFYXNFgBxNtsF6KyEK-225" style="edgeStyle=orthogonalEdgeStyle;rounded=0;orthogonalLoop=1;jettySize=auto;html=1;exitX=1;exitY=0.75;exitDx=0;exitDy=0;entryX=0.408;entryY=0.02;entryDx=0;entryDy=0;entryPerimeter=0;" edge="1" parent="WIyWlLk6GJQsqaUBKTNV-1" source="J7MFYXNFgBxNtsF6KyEK-214" target="J7MFYXNFgBxNtsF6KyEK-253">
          <mxGeometry relative="1" as="geometry">
            <mxPoint x="2470" y="1100" as="targetPoint" />
          </mxGeometry>
        </mxCell>
        <mxCell id="J7MFYXNFgBxNtsF6KyEK-226" style="edgeStyle=orthogonalEdgeStyle;rounded=0;orthogonalLoop=1;jettySize=auto;html=1;exitX=0;exitY=1;exitDx=0;exitDy=0;entryX=0.442;entryY=0.061;entryDx=0;entryDy=0;entryPerimeter=0;" edge="1" parent="WIyWlLk6GJQsqaUBKTNV-1" source="J7MFYXNFgBxNtsF6KyEK-214" target="J7MFYXNFgBxNtsF6KyEK-241">
          <mxGeometry relative="1" as="geometry">
            <mxPoint x="1469.9230769230767" y="990" as="targetPoint" />
          </mxGeometry>
        </mxCell>
        <mxCell id="J7MFYXNFgBxNtsF6KyEK-227" style="edgeStyle=orthogonalEdgeStyle;rounded=0;orthogonalLoop=1;jettySize=auto;html=1;exitX=0.25;exitY=1;exitDx=0;exitDy=0;entryX=0.451;entryY=-0.02;entryDx=0;entryDy=0;entryPerimeter=0;" edge="1" parent="WIyWlLk6GJQsqaUBKTNV-1" source="J7MFYXNFgBxNtsF6KyEK-214" target="J7MFYXNFgBxNtsF6KyEK-243">
          <mxGeometry relative="1" as="geometry">
            <mxPoint x="1612.6153846153843" y="1010" as="targetPoint" />
          </mxGeometry>
        </mxCell>
        <mxCell id="J7MFYXNFgBxNtsF6KyEK-228" style="edgeStyle=orthogonalEdgeStyle;rounded=0;orthogonalLoop=1;jettySize=auto;html=1;exitX=0.75;exitY=1;exitDx=0;exitDy=0;entryX=0.417;entryY=0;entryDx=0;entryDy=0;entryPerimeter=0;" edge="1" parent="WIyWlLk6GJQsqaUBKTNV-1" source="J7MFYXNFgBxNtsF6KyEK-214" target="J7MFYXNFgBxNtsF6KyEK-247">
          <mxGeometry relative="1" as="geometry">
            <mxPoint x="2060" y="1110" as="targetPoint" />
            <Array as="points">
              <mxPoint x="2080" y="870" />
            </Array>
          </mxGeometry>
        </mxCell>
        <mxCell id="J7MFYXNFgBxNtsF6KyEK-229" style="edgeStyle=orthogonalEdgeStyle;rounded=0;orthogonalLoop=1;jettySize=auto;html=1;exitX=1;exitY=1;exitDx=0;exitDy=0;entryX=0.5;entryY=0;entryDx=0;entryDy=0;" edge="1" parent="WIyWlLk6GJQsqaUBKTNV-1" source="J7MFYXNFgBxNtsF6KyEK-214" target="J7MFYXNFgBxNtsF6KyEK-250">
          <mxGeometry relative="1" as="geometry">
            <mxPoint x="2290" y="1100" as="targetPoint" />
          </mxGeometry>
        </mxCell>
        <mxCell id="J7MFYXNFgBxNtsF6KyEK-234" style="edgeStyle=orthogonalEdgeStyle;rounded=0;orthogonalLoop=1;jettySize=auto;html=1;exitX=1;exitY=0.5;exitDx=0;exitDy=0;entryX=0.473;entryY=0;entryDx=0;entryDy=0;entryPerimeter=0;" edge="1" parent="WIyWlLk6GJQsqaUBKTNV-1" source="J7MFYXNFgBxNtsF6KyEK-214" target="J7MFYXNFgBxNtsF6KyEK-255">
          <mxGeometry relative="1" as="geometry">
            <mxPoint x="2680" y="1100" as="targetPoint" />
          </mxGeometry>
        </mxCell>
        <mxCell id="J7MFYXNFgBxNtsF6KyEK-214" value="&lt;&lt;interface&gt;&gt;&#xa;Notificacion&#xa;" style="swimlane;fontStyle=2;align=center;verticalAlign=top;childLayout=stackLayout;horizontal=1;startSize=40;horizontalStack=0;resizeParent=1;resizeLast=0;collapsible=1;marginBottom=0;rounded=0;shadow=0;strokeWidth=1;fillColor=#d5e8d4;strokeColor=#82b366;" vertex="1" parent="WIyWlLk6GJQsqaUBKTNV-1">
          <mxGeometry x="1630" y="800" width="570" height="70" as="geometry">
            <mxRectangle x="230" y="140" width="160" height="26" as="alternateBounds" />
          </mxGeometry>
        </mxCell>
        <mxCell id="J7MFYXNFgBxNtsF6KyEK-215" value="+generaNotificacion(): String" style="text;align=left;verticalAlign=top;spacingLeft=4;spacingRight=4;overflow=hidden;rotatable=0;points=[[0,0.5],[1,0.5]];portConstraint=eastwest;fontColor=#000000;" vertex="1" parent="J7MFYXNFgBxNtsF6KyEK-214">
          <mxGeometry y="40" width="570" height="26" as="geometry" />
        </mxCell>
        <mxCell id="J7MFYXNFgBxNtsF6KyEK-175" style="edgeStyle=orthogonalEdgeStyle;rounded=0;orthogonalLoop=1;jettySize=auto;html=1;exitX=1;exitY=0.5;exitDx=0;exitDy=0;entryX=0.511;entryY=-0.014;entryDx=0;entryDy=0;entryPerimeter=0;" edge="1" parent="WIyWlLk6GJQsqaUBKTNV-1" source="J7MFYXNFgBxNtsF6KyEK-79" target="J7MFYXNFgBxNtsF6KyEK-214">
          <mxGeometry relative="1" as="geometry">
            <mxPoint x="1760" y="800" as="targetPoint" />
          </mxGeometry>
        </mxCell>
        <mxCell id="J7MFYXNFgBxNtsF6KyEK-236" value="NotificacionAvance" style="swimlane;fontStyle=2;align=center;verticalAlign=top;childLayout=stackLayout;horizontal=1;startSize=40;horizontalStack=0;resizeParent=1;resizeLast=0;collapsible=1;marginBottom=0;rounded=0;shadow=0;strokeWidth=1;fillColor=#ffcccc;strokeColor=#36393d;" vertex="1" parent="WIyWlLk6GJQsqaUBKTNV-1">
          <mxGeometry x="1241" y="1110" width="169" height="70" as="geometry">
            <mxRectangle x="230" y="140" width="160" height="26" as="alternateBounds" />
          </mxGeometry>
        </mxCell>
        <mxCell id="J7MFYXNFgBxNtsF6KyEK-237" value="+ generaNotificacion(): String" style="text;align=left;verticalAlign=top;spacingLeft=4;spacingRight=4;overflow=hidden;rotatable=0;points=[[0,0.5],[1,0.5]];portConstraint=eastwest;fontColor=#000000;" vertex="1" parent="J7MFYXNFgBxNtsF6KyEK-236">
          <mxGeometry y="40" width="169" height="26" as="geometry" />
        </mxCell>
        <mxCell id="J7MFYXNFgBxNtsF6KyEK-241" value="NotificacionCambioHorario" style="swimlane;fontStyle=2;align=center;verticalAlign=top;childLayout=stackLayout;horizontal=1;startSize=40;horizontalStack=0;resizeParent=1;resizeLast=0;collapsible=1;marginBottom=0;rounded=0;shadow=0;strokeWidth=1;fillColor=#ffcccc;strokeColor=#36393d;" vertex="1" parent="WIyWlLk6GJQsqaUBKTNV-1">
          <mxGeometry x="1430" y="1110" width="169" height="70" as="geometry">
            <mxRectangle x="230" y="140" width="160" height="26" as="alternateBounds" />
          </mxGeometry>
        </mxCell>
        <mxCell id="J7MFYXNFgBxNtsF6KyEK-242" value="+ generaNotificacion(): String" style="text;align=left;verticalAlign=top;spacingLeft=4;spacingRight=4;overflow=hidden;rotatable=0;points=[[0,0.5],[1,0.5]];portConstraint=eastwest;fontColor=#000000;" vertex="1" parent="J7MFYXNFgBxNtsF6KyEK-241">
          <mxGeometry y="40" width="169" height="26" as="geometry" />
        </mxCell>
        <mxCell id="J7MFYXNFgBxNtsF6KyEK-243" value="NotificacionCancelacion" style="swimlane;fontStyle=2;align=center;verticalAlign=top;childLayout=stackLayout;horizontal=1;startSize=40;horizontalStack=0;resizeParent=1;resizeLast=0;collapsible=1;marginBottom=0;rounded=0;shadow=0;strokeWidth=1;fillColor=#ffcccc;strokeColor=#36393d;" vertex="1" parent="WIyWlLk6GJQsqaUBKTNV-1">
          <mxGeometry x="1620" y="1110" width="169" height="70" as="geometry">
            <mxRectangle x="230" y="140" width="160" height="26" as="alternateBounds" />
          </mxGeometry>
        </mxCell>
        <mxCell id="J7MFYXNFgBxNtsF6KyEK-244" value="+ generaNotificacion(): String" style="text;align=left;verticalAlign=top;spacingLeft=4;spacingRight=4;overflow=hidden;rotatable=0;points=[[0,0.5],[1,0.5]];portConstraint=eastwest;fontColor=#000000;" vertex="1" parent="J7MFYXNFgBxNtsF6KyEK-243">
          <mxGeometry y="40" width="169" height="26" as="geometry" />
        </mxCell>
        <mxCell id="J7MFYXNFgBxNtsF6KyEK-245" value="NotificacionSaldoRestante" style="swimlane;fontStyle=2;align=center;verticalAlign=top;childLayout=stackLayout;horizontal=1;startSize=40;horizontalStack=0;resizeParent=1;resizeLast=0;collapsible=1;marginBottom=0;rounded=0;shadow=0;strokeWidth=1;fillColor=#ffcccc;strokeColor=#36393d;" vertex="1" parent="WIyWlLk6GJQsqaUBKTNV-1">
          <mxGeometry x="1820" y="1110" width="169" height="70" as="geometry">
            <mxRectangle x="230" y="140" width="160" height="26" as="alternateBounds" />
          </mxGeometry>
        </mxCell>
        <mxCell id="J7MFYXNFgBxNtsF6KyEK-246" value="+ generaNotificacion(): String" style="text;align=left;verticalAlign=top;spacingLeft=4;spacingRight=4;overflow=hidden;rotatable=0;points=[[0,0.5],[1,0.5]];portConstraint=eastwest;fontColor=#000000;" vertex="1" parent="J7MFYXNFgBxNtsF6KyEK-245">
          <mxGeometry y="40" width="169" height="26" as="geometry" />
        </mxCell>
        <mxCell id="J7MFYXNFgBxNtsF6KyEK-247" value="NotificacionPagoMensualidad" style="swimlane;fontStyle=2;align=center;verticalAlign=top;childLayout=stackLayout;horizontal=1;startSize=40;horizontalStack=0;resizeParent=1;resizeLast=0;collapsible=1;marginBottom=0;rounded=0;shadow=0;strokeWidth=1;fillColor=#ffcccc;strokeColor=#36393d;" vertex="1" parent="WIyWlLk6GJQsqaUBKTNV-1">
          <mxGeometry x="2010" y="1110" width="169" height="70" as="geometry">
            <mxRectangle x="230" y="140" width="160" height="26" as="alternateBounds" />
          </mxGeometry>
        </mxCell>
        <mxCell id="J7MFYXNFgBxNtsF6KyEK-248" value="+ generaNotificacion(): String" style="text;align=left;verticalAlign=top;spacingLeft=4;spacingRight=4;overflow=hidden;rotatable=0;points=[[0,0.5],[1,0.5]];portConstraint=eastwest;fontColor=#000000;" vertex="1" parent="J7MFYXNFgBxNtsF6KyEK-247">
          <mxGeometry y="40" width="169" height="26" as="geometry" />
        </mxCell>
        <mxCell id="J7MFYXNFgBxNtsF6KyEK-250" value="NotificacionCancelacionSaldo" style="swimlane;fontStyle=2;align=center;verticalAlign=top;childLayout=stackLayout;horizontal=1;startSize=40;horizontalStack=0;resizeParent=1;resizeLast=0;collapsible=1;marginBottom=0;rounded=0;shadow=0;strokeWidth=1;fillColor=#ffcccc;strokeColor=#36393d;" vertex="1" parent="WIyWlLk6GJQsqaUBKTNV-1">
          <mxGeometry x="2210" y="1110" width="169" height="70" as="geometry">
            <mxRectangle x="230" y="140" width="160" height="26" as="alternateBounds" />
          </mxGeometry>
        </mxCell>
        <mxCell id="J7MFYXNFgBxNtsF6KyEK-251" value="+ generaNotificacion(): String" style="text;align=left;verticalAlign=top;spacingLeft=4;spacingRight=4;overflow=hidden;rotatable=0;points=[[0,0.5],[1,0.5]];portConstraint=eastwest;fontColor=#000000;" vertex="1" parent="J7MFYXNFgBxNtsF6KyEK-250">
          <mxGeometry y="40" width="169" height="26" as="geometry" />
        </mxCell>
        <mxCell id="J7MFYXNFgBxNtsF6KyEK-253" value="NotificacionSaldoInsuficiente" style="swimlane;fontStyle=2;align=center;verticalAlign=top;childLayout=stackLayout;horizontal=1;startSize=40;horizontalStack=0;resizeParent=1;resizeLast=0;collapsible=1;marginBottom=0;rounded=0;shadow=0;strokeWidth=1;fillColor=#ffcccc;strokeColor=#36393d;" vertex="1" parent="WIyWlLk6GJQsqaUBKTNV-1">
          <mxGeometry x="2400" y="1110" width="169" height="70" as="geometry">
            <mxRectangle x="230" y="140" width="160" height="26" as="alternateBounds" />
          </mxGeometry>
        </mxCell>
        <mxCell id="J7MFYXNFgBxNtsF6KyEK-254" value="+ generaNotificacion(): String" style="text;align=left;verticalAlign=top;spacingLeft=4;spacingRight=4;overflow=hidden;rotatable=0;points=[[0,0.5],[1,0.5]];portConstraint=eastwest;fontColor=#000000;" vertex="1" parent="J7MFYXNFgBxNtsF6KyEK-253">
          <mxGeometry y="40" width="169" height="26" as="geometry" />
        </mxCell>
        <mxCell id="J7MFYXNFgBxNtsF6KyEK-255" value="NotificacionMaterialComplementario" style="swimlane;fontStyle=2;align=center;verticalAlign=top;childLayout=stackLayout;horizontal=1;startSize=40;horizontalStack=0;resizeParent=1;resizeLast=0;collapsible=1;marginBottom=0;rounded=0;shadow=0;strokeWidth=1;fillColor=#ffcccc;strokeColor=#36393d;" vertex="1" parent="WIyWlLk6GJQsqaUBKTNV-1">
          <mxGeometry x="2600" y="1110" width="190" height="70" as="geometry">
            <mxRectangle x="230" y="140" width="160" height="26" as="alternateBounds" />
          </mxGeometry>
        </mxCell>
        <mxCell id="J7MFYXNFgBxNtsF6KyEK-256" value="+ generaNotificacion(): String" style="text;align=left;verticalAlign=top;spacingLeft=4;spacingRight=4;overflow=hidden;rotatable=0;points=[[0,0.5],[1,0.5]];portConstraint=eastwest;fontColor=#000000;" vertex="1" parent="J7MFYXNFgBxNtsF6KyEK-255">
          <mxGeometry y="40" width="190" height="26" as="geometry" />
        </mxCell>
      </root>
    </mxGraphModel>
  </diagram>
</mxfile>
